<svg xmlns="http://www.w3.org/2000/svg" width="68" height="68" viewBox="0 0 68 68">
  <path id="Icon_awesome-life-ring" data-name="Icon awesome-life-ring" d="M34.563.563a34,34,0,1,0,34,34A34,34,0,0,0,34.563.563ZM58.376,16.954l-8.692,8.692a17.744,17.744,0,0,0-6.2-6.2l8.692-8.692a29.941,29.941,0,0,1,6.2,6.2ZM34.563,47.724A13.161,13.161,0,1,1,47.724,34.563,13.161,13.161,0,0,1,34.563,47.724ZM16.954,10.749l8.692,8.692a17.744,17.744,0,0,0-6.2,6.2l-8.692-8.692a29.938,29.938,0,0,1,6.2-6.2Zm-6.2,41.422,8.692-8.692a17.744,17.744,0,0,0,6.2,6.2l-8.692,8.692a29.942,29.942,0,0,1-6.2-6.2Zm41.422,6.2L43.48,49.684a17.744,17.744,0,0,0,6.2-6.2l8.692,8.692A29.943,29.943,0,0,1,52.171,58.376Z" transform="translate(-0.563 -0.563)" fill="#fff"/>
</svg>
