<svg xmlns="http://www.w3.org/2000/svg" width="68" height="59.5" viewBox="0 0 68 59.5">
  <path id="Icon_awesome-heartbeat" data-name="Icon awesome-heartbeat" d="M42.525,30.381l-6.6,13.2a2.123,2.123,0,0,1-3.838-.08L24.53,26.729l-3.984,9.522H8.049L32.286,61.019a2.366,2.366,0,0,0,3.413,0l24.25-24.768H45.46ZM62.911,7.818l-.319-.332a17.4,17.4,0,0,0-24.888,0L34,11.284,30.294,7.5a17.375,17.375,0,0,0-24.888,0l-.319.319A18.235,18.235,0,0,0,4.118,32h13.6l4.768-11.448a2.129,2.129,0,0,1,3.9-.053l7.729,17.172,6.507-13a2.122,2.122,0,0,1,3.8,0L48.09,32H63.88a18.235,18.235,0,0,0-.969-24.184Z" transform="translate(0.001 -2.246)" fill="#fff"/>
</svg>
