<svg xmlns="http://www.w3.org/2000/svg" xmlns:xlink="http://www.w3.org/1999/xlink" width="261.371" height="73.527" viewBox="0 0 261.371 73.527">
  <defs>
    <clipPath id="clip-path">
      <path id="Контур_1" data-name="Контур 1" d="M502.517,15.736c-.5.525-.1,1.429.093,2.107a7.424,7.424,0,0,0,1.56,2.758,45.345,45.345,0,0,0,9.678,6.839c.017.008.035.015.051.022a27.215,27.215,0,0,1,1.871-2.93c-5.446-2.834-9.27-5.246-12.733-8.831a1.068,1.068,0,0,0-.28-.046.331.331,0,0,0-.24.081" transform="translate(-502.276 -15.655)" fill="none"/>
    </clipPath>
    <clipPath id="clip-path-2">
      <path id="Контур_2" data-name="Контур 2" d="M503,19.209c.332,4.7,4.183,6.843,8.867,9.84a.643.643,0,0,0,.147.071,23.316,23.316,0,0,1,1.106-3.23.89.89,0,0,0-.248-.177,32.945,32.945,0,0,1-9.38-6.679.191.191,0,0,0-.12-.034c-.154,0-.38.1-.373.209" transform="translate(-503 -19)" fill="none"/>
    </clipPath>
    <clipPath id="clip-path-3">
      <path id="Контур_3" data-name="Контур 3" d="M502.549,22.7c-.04.086-.233.177-.251.307a4.564,4.564,0,0,0,1.628,3.584,20.355,20.355,0,0,0,7.882,4.5,20.481,20.481,0,0,1,.589-4.008,41.347,41.347,0,0,1-5.725-2.373,29.971,29.971,0,0,0-4.023-2.053c-.051,0-.084.013-.1.046" transform="translate(-502.276 -22.655)" fill="none"/>
    </clipPath>
    <clipPath id="clip-path-4">
      <path id="Контур_4" data-name="Контур 4" d="M536.509,15.7c-3.464,3.586-7.286,6-12.733,8.831a26.948,26.948,0,0,1,1.869,2.93c.015-.007.034-.013.051-.022a45.356,45.356,0,0,0,9.68-6.839,7.4,7.4,0,0,0,1.559-2.758c.2-.678.59-1.582.094-2.107a.335.335,0,0,0-.241-.081,1.057,1.057,0,0,0-.278.046" transform="translate(-523.776 -15.655)" fill="none"/>
    </clipPath>
    <clipPath id="clip-path-5">
      <path id="Контур_5" data-name="Контур 5" d="M534.681,19.034a33.033,33.033,0,0,1-9.381,6.679.867.867,0,0,0-.248.177,23.287,23.287,0,0,1,1.1,3.23.641.641,0,0,0,.147-.071c4.686-3,8.535-5.144,8.867-9.84.007-.113-.218-.209-.373-.209a.174.174,0,0,0-.116.034" transform="translate(-525.052 -19)" fill="none"/>
    </clipPath>
    <clipPath id="clip-path-6">
      <path id="Контур_6" data-name="Контур 6" d="M531.5,24.708a41.338,41.338,0,0,1-5.723,2.373,20.606,20.606,0,0,1,.589,4.008,20.379,20.379,0,0,0,7.882-4.5,4.567,4.567,0,0,0,1.626-3.584c-.019-.13-.211-.221-.248-.307-.015-.032-.051-.046-.1-.046a30.173,30.173,0,0,0-4.023,2.053" transform="translate(-525.776 -22.655)" fill="none"/>
    </clipPath>
    <clipPath id="clip-path-7">
      <path id="Контур_7" data-name="Контур 7" d="M525.576,21.711c1.251,1.832,6.888,8.673,2.321,17.476-2.319,4.465-4.3,5.446-10.743,11.1-5.519,4.836.3,10.161.3,10.161a15.284,15.284,0,0,0,1.365-1.341c-2.943-2.64-1.945-5.672.229-7.534,6.841-5.866,19.048-13.994,8.425-29.321a3.229,3.229,0,0,0-1.764-.6c-.1,0-.155.017-.13.056" transform="translate(-514.776 -21.655)" fill="none"/>
    </clipPath>
    <clipPath id="clip-path-8">
      <path id="Контур_8" data-name="Контур 8" d="M520,41.391c6.183,4.559-4.053,9.206-5.7,12.9-1.832,3.738,1.646,7.29,1.646,7.29s1.093-1.032,1.714-1.725c-5.574-5.811,3.377-8.489,5.407-12.825a5.909,5.909,0,0,0-1.2-7.376Z" transform="translate(-513.776 -39.655)" fill="none"/>
    </clipPath>
    <clipPath id="clip-path-9">
      <path id="Контур_9" data-name="Контур 9" d="M514.82,21.988c-9.069,8.312-5.964,18.208,5.031,26.336L522.1,46.61c-.6-.469-8.184-4.977-9.987-10.785a11.957,11.957,0,0,1,4.535-13.956c.074-.056-.25-.1-.649-.1a2.273,2.273,0,0,0-1.177.218" transform="translate(-509.507 -21.77)" fill="none"/>
    </clipPath>
    <clipPath id="clip-path-10">
      <path id="Контур_10" data-name="Контур 10" d="M519.735,47.459c5.158,3.79-1.344,7.868-3.392,10.262a3.655,3.655,0,0,0,1.975,6.163h1.277l.091-.02c3.992-.936,3.456-5.494,1.751-6.963a23.316,23.316,0,0,0-1.564,1.81,2.165,2.165,0,0,1,.688,1,1.9,1.9,0,0,1,.12.646,1.648,1.648,0,1,1-3.291,0,1.814,1.814,0,0,1,.221-.864c.545-1.53,2.751-3.4,3.895-4.576,5.058-5.8-.29-8.884-.29-8.884Z" transform="translate(-515.284 -46.037)" fill="none"/>
    </clipPath>
    <clipPath id="clip-path-11">
      <path id="Контур_11" data-name="Контур 11" d="M513.226,21.015c-2.162-.7-3.34-1.641-3.232-2.579.155-1.383,3.1-2.825,7.337-3.588a37.546,37.546,0,0,1,6.021-.57c6.109-.113,12.733,1.371,12.47,3.682-.155,1.381-3.1,2.822-7.334,3.589a38.4,38.4,0,0,1-6.023.568c-.261.005-.521.008-.778.008a28.578,28.578,0,0,1-8.462-1.112m10.267-7.981a40.21,40.21,0,0,0-6.393.609c-5.192.936-8.562,2.783-8.789,4.822-.167,1.474,1.292,2.786,4.1,3.7a31.64,31.64,0,0,0,9.913,1.2,40.491,40.491,0,0,0,6.4-.609c5.188-.936,8.555-2.781,8.786-4.822.319-2.8-5.429-4.9-13.208-4.9-.267,0-.533,0-.8.008" transform="translate(-508.298 -13.025)" fill="none"/>
    </clipPath>
    <clipPath id="clip-path-12">
      <path id="Контур_12" data-name="Контур 12" d="M467.819,34.04l3.755,7.157h-7.531Zm-.477-2.228a.792.792,0,0,0-.661.386l-7.867,14.976v.474l.012.02a.513.513,0,0,0,.437.236h.815a.737.737,0,0,0,.663-.393L463.108,43h9.42l2.365,4.505a.737.737,0,0,0,.666.4h.818a.483.483,0,0,0,.435-.712l-7.863-14.969a.726.726,0,0,0-.656-.412Z" transform="translate(-458.814 -31.812)" fill="none"/>
    </clipPath>
    <clipPath id="clip-path-13">
      <path id="Контур_13" data-name="Контур 13" d="M484.688,32.655a.568.568,0,0,0-.59.541V45.071L472.69,32.947a.851.851,0,0,0-.649-.292h-.676a.567.567,0,0,0-.589.541v14.1a.555.555,0,0,0,.589.541h.676a.567.567,0,0,0,.589-.541V35.4L484.048,47.57a.961.961,0,0,0,.639.265h.68a.568.568,0,0,0,.589-.541V33.2a.58.58,0,0,0-.589-.541Z" transform="translate(-470.776 -32.655)" fill="none"/>
    </clipPath>
    <clipPath id="clip-path-14">
      <path id="Контур_14" data-name="Контур 14" d="M480.775,40.09c0,5.122,3.476,8.432,8.852,8.432,3.577,0,6.441-1.494,7.867-4.114a1.29,1.29,0,0,0,.148-.589V39.773a.6.6,0,0,0-.585-.589h-6.438a.586.586,0,0,0-.585.589v.678a.574.574,0,0,0,.585.589H495.8v2.525a6.816,6.816,0,0,1-6.17,3.1c-4.384,0-7-2.457-7-6.575s2.616-6.578,7-6.578a7.426,7.426,0,0,1,5.127,1.729.608.608,0,0,0,.825.017l.518-.45a.579.579,0,0,0,.013-.835,9.194,9.194,0,0,0-6.484-2.317c-5.375,0-8.852,3.311-8.852,8.435" transform="translate(-480.775 -31.655)" fill="none"/>
    </clipPath>
    <clipPath id="clip-path-15">
      <path id="Контур_15" data-name="Контур 15" d="M493.363,32.655a.566.566,0,0,0-.587.541v14.1a.555.555,0,0,0,.587.541h14a.567.567,0,0,0,.589-.541v-.621a.584.584,0,0,0-.589-.541H494.63V41.1H504.81a.566.566,0,0,0,.589-.54v-.622a.58.58,0,0,0-.589-.54H494.63V34.359h12.738a.567.567,0,0,0,.589-.541V33.2a.581.581,0,0,0-.589-.541Z" transform="translate(-492.776 -32.655)" fill="none"/>
    </clipPath>
    <clipPath id="clip-path-16">
      <path id="Контур_16" data-name="Контур 16" d="M503.373,32.655a.571.571,0,0,0-.6.541v14.1a.56.56,0,0,0,.6.541h10.611a.574.574,0,0,0,.6-.541v-.621a.589.589,0,0,0-.6-.541h-9.327V33.2a.585.585,0,0,0-.6-.541Z" transform="translate(-502.776 -32.655)" fill="none"/>
    </clipPath>
    <clipPath id="clip-path-17">
      <path id="Контур_17" data-name="Контур 17" d="M527.37,32.655a.572.572,0,0,0-.6.541v14.1a.559.559,0,0,0,.6.541h10.616a.572.572,0,0,0,.6-.541v-.621a.588.588,0,0,0-.6-.541h-9.329V33.2a.586.586,0,0,0-.6-.541Z" transform="translate(-526.775 -32.655)" fill="none"/>
    </clipPath>
    <clipPath id="clip-path-18">
      <path id="Контур_18" data-name="Контур 18" d="M534.539,40.257c0-3.711,2.49-5.927,6.661-5.927,4.121,0,6.683,2.272,6.683,5.927,0,4.353-3.451,5.907-6.683,5.907-4.171,0-6.661-2.208-6.661-5.907m-1.763,0c0,4.6,3.308,7.578,8.423,7.578s8.443-2.974,8.443-7.578-3.314-7.6-8.443-7.6-8.423,2.984-8.423,7.6" transform="translate(-532.776 -32.655)" fill="none"/>
    </clipPath>
    <clipPath id="clip-path-19">
      <path id="Контур_19" data-name="Контур 19" d="M559.688,32.655a.567.567,0,0,0-.589.541V45.071L547.69,32.948a.86.86,0,0,0-.646-.293h-.678a.568.568,0,0,0-.59.541v14.1a.556.556,0,0,0,.59.541h.678a.568.568,0,0,0,.59-.541V35.4l11.41,12.171a.947.947,0,0,0,.643.266h.678a.568.568,0,0,0,.59-.541V33.2a.582.582,0,0,0-.59-.541Z" transform="translate(-545.776 -32.655)" fill="none"/>
    </clipPath>
    <clipPath id="clip-path-20">
      <path id="Контур_20" data-name="Контур 20" d="M555.776,40.09c0,5.122,3.473,8.432,8.85,8.432,3.576,0,6.441-1.494,7.867-4.109a1.307,1.307,0,0,0,.15-.594V39.773a.6.6,0,0,0-.589-.589h-6.436a.588.588,0,0,0-.587.589v.678a.575.575,0,0,0,.587.589h5.176v2.525a6.81,6.81,0,0,1-6.168,3.1c-4.38,0-7-2.457-7-6.575s2.618-6.576,7-6.576a7.441,7.441,0,0,1,5.131,1.731.61.61,0,0,0,.825.013l.514-.45a.584.584,0,0,0,.015-.835,9.2,9.2,0,0,0-6.485-2.317c-5.377,0-8.85,3.311-8.85,8.435" transform="translate(-555.776 -31.655)" fill="none"/>
    </clipPath>
    <clipPath id="clip-path-21">
      <path id="Контур_21" data-name="Контур 21" d="M568.366,32.655a.567.567,0,0,0-.59.541v14.1a.556.556,0,0,0,.59.541h14a.568.568,0,0,0,.59-.541v-.621a.584.584,0,0,0-.59-.541H569.633V41.1H579.81a.568.568,0,0,0,.59-.54v-.622a.584.584,0,0,0-.59-.54H569.633V34.359h12.733a.568.568,0,0,0,.59-.541V33.2a.582.582,0,0,0-.59-.541Z" transform="translate(-567.776 -32.655)" fill="none"/>
    </clipPath>
    <clipPath id="clip-path-22">
      <path id="Контур_22" data-name="Контур 22" d="M593.425,32.655a.748.748,0,0,0-.619.366l-6.588,12.712-6.6-12.689a.664.664,0,0,0-.605-.39h-.762a.477.477,0,0,0-.4.219.449.449,0,0,0-.022.449l7.334,14.143a.7.7,0,0,0,.617.369h.885a.614.614,0,0,0,.6-.371l7.329-14.134a.453.453,0,0,0-.4-.675Z" transform="translate(-577.776 -32.655)" fill="none"/>
    </clipPath>
    <clipPath id="clip-path-23">
      <path id="Контур_23" data-name="Контур 23" d="M590.46,32.655a.628.628,0,0,0-.685.541v.621a.613.613,0,0,0,.685.541h2.459V46.153H590.46a.628.628,0,0,0-.685.538v.6a.613.613,0,0,0,.685.541h7.069a.625.625,0,0,0,.681-.541v-.6a.641.641,0,0,0-.681-.538h-2.461V34.359h2.461a.625.625,0,0,0,.681-.541V33.2a.639.639,0,0,0-.681-.541Z" transform="translate(-589.775 -32.655)" fill="none"/>
    </clipPath>
    <clipPath id="clip-path-24">
      <path id="Контур_24" data-name="Контур 24" d="M596.365,32.655a.567.567,0,0,0-.589.541v.621a.554.554,0,0,0,.589.541h6.074V47.294a.555.555,0,0,0,.59.541h.678a.568.568,0,0,0,.589-.541V34.359h6.072a.568.568,0,0,0,.589-.541V33.2a.58.58,0,0,0-.589-.541Z" transform="translate(-595.776 -32.655)" fill="none"/>
    </clipPath>
    <clipPath id="clip-path-25">
      <path id="Контур_25" data-name="Контур 25" d="M618.708,32.655a.563.563,0,0,0-.58.541v3.731c0,3.107-2.216,5.038-5.785,5.038-3.54,0-5.742-1.931-5.742-5.038V33.2a.574.574,0,0,0-.577-.541h-.67a.562.562,0,0,0-.579.541v3.731c0,3.736,2.608,6.344,6.674,6.711v3.655a.551.551,0,0,0,.582.541h.67a.562.562,0,0,0,.578-.541V43.642c4.067-.354,6.676-2.962,6.676-6.715V33.2a.576.576,0,0,0-.582-.541Z" transform="translate(-604.776 -32.655)" fill="none"/>
    </clipPath>
    <clipPath id="clip-path-26">
      <path id="Контур_26" data-name="Контур 26" d="M480.223,44.655a.524.524,0,0,0-.324.116l-4.065,3.652-4.075-3.662a.551.551,0,0,0-.312-.106h-.412a.245.245,0,0,0-.26.224v7.985a.236.236,0,0,0,.26.224h.412a.244.244,0,0,0,.261-.224V45.849l3.94,3.51a.3.3,0,0,0,.373,0l3.938-3.508v7.015a.238.238,0,0,0,.263.224h.412a.244.244,0,0,0,.261-.224V44.879a.256.256,0,0,0-.261-.224Z" transform="translate(-470.776 -44.655)" fill="none"/>
    </clipPath>
    <clipPath id="clip-path-27">
      <path id="Контур_27" data-name="Контур 27" d="M478.069,44.655c-.165,0-.294.1-.294.224v7.985c0,.128.123.224.294.224h9.53c.164,0,.3-.1.3-.224v-.353c0-.116-.143-.224-.3-.224h-8.774V49.271h7.03c.167,0,.3-.1.3-.224v-.353c0-.116-.142-.223-.3-.223h-7.03V45.458H487.6a.269.269,0,0,0,.3-.228v-.351c0-.116-.143-.224-.3-.224Z" transform="translate(-477.776 -44.655)" fill="none"/>
    </clipPath>
    <clipPath id="clip-path-28">
      <path id="Контур_28" data-name="Контур 28" d="M485.781,45.458h3.394c2.864,0,4.713,1.348,4.713,3.436,0,2.5-2.537,3.394-4.713,3.394h-3.394Zm-.724-.8a.258.258,0,0,0-.282.224v7.985c0,.128.118.224.282.224h4.117c2.64,0,5.719-1.1,5.719-4.195,0-2.574-2.243-4.239-5.719-4.239Z" transform="translate(-484.776 -44.655)" fill="none"/>
    </clipPath>
    <clipPath id="clip-path-29">
      <path id="Контур_29" data-name="Контур 29" d="M491.429,44.655a.218.218,0,0,0-.211.224v.351a.214.214,0,0,0,.211.228h1.1V52.3h-1.1a.22.22,0,0,0-.211.223v.342a.212.212,0,0,0,.211.224h2.952a.219.219,0,0,0,.213-.224v-.342a.226.226,0,0,0-.213-.223h-1.1V45.458h1.1a.219.219,0,0,0,.213-.228v-.351a.228.228,0,0,0-.213-.224Z" transform="translate(-491.218 -44.655)" fill="none"/>
    </clipPath>
    <clipPath id="clip-path-30">
      <path id="Контур_30" data-name="Контур 30" d="M493.489,48.873c0,2.56,2.1,4.215,5.34,4.215,2.161,0,3.89-.747,4.743-2.043a.187.187,0,0,0,.025-.177.213.213,0,0,0-.142-.123l-.415-.152a.31.31,0,0,0-.349.1,4.618,4.618,0,0,1-3.863,1.607c-2.712,0-4.4-1.314-4.4-3.429,0-2.151,1.643-3.432,4.4-3.432a4.47,4.47,0,0,1,3.89,1.619.325.325,0,0,0,.356.086l.385-.153a.206.206,0,0,0,.1-.3,5.477,5.477,0,0,0-4.729-2.034c-3.243,0-5.34,1.656-5.34,4.218" transform="translate(-493.489 -44.655)" fill="none"/>
    </clipPath>
    <clipPath id="clip-path-31">
      <path id="Контур_31" data-name="Контур 31" d="M504.843,45.584l2.277,4.083h-4.568Zm-.27-.929a.358.358,0,0,0-.3.164L499.8,52.827A.162.162,0,0,0,499.8,53a.207.207,0,0,0,.174.088h.464a.335.335,0,0,0,.3-.165l1.368-2.452h5.467l1.37,2.454a.339.339,0,0,0,.3.164h.464a.2.2,0,0,0,.164-.081.173.173,0,0,0,.007-.18l-4.475-8a.311.311,0,0,0-.288-.174Z" transform="translate(-499.776 -44.655)" fill="none"/>
    </clipPath>
    <clipPath id="clip-path-32">
      <path id="Контур_32" data-name="Контур 32" d="M507.095,44.655c-.177,0-.319.1-.319.224v7.985c0,.128.135.224.319.224h7.8c.175,0,.319-.1.319-.224v-.353c0-.116-.154-.224-.319-.224H507.92V44.879c0-.116-.152-.224-.322-.224Z" transform="translate(-506.776 -44.655)" fill="none"/>
    </clipPath>
    <clipPath id="clip-path-33">
      <path id="Контур_33" data-name="Контур 33" d="M522.776,48.873c0,2.56,2.1,4.215,5.34,4.215,2.162,0,3.893-.747,4.746-2.048a.186.186,0,0,0,.02-.175.221.221,0,0,0-.137-.12l-.418-.152a.32.32,0,0,0-.349.1,4.619,4.619,0,0,1-3.862,1.606c-2.714,0-4.4-1.314-4.4-3.429,0-2.151,1.646-3.432,4.4-3.432a4.467,4.467,0,0,1,3.889,1.623.323.323,0,0,0,.358.083l.381-.153a.233.233,0,0,0,.13-.14.179.179,0,0,0-.03-.164c-.857-1.294-2.581-2.034-4.728-2.034-3.244,0-5.34,1.656-5.34,4.218" transform="translate(-522.776 -44.655)" fill="none"/>
    </clipPath>
    <clipPath id="clip-path-34">
      <path id="Контур_34" data-name="Контур 34" d="M530.068,44.655a.266.266,0,0,0-.292.224v7.985c0,.128.123.224.292.224H539.6a.264.264,0,0,0,.292-.224v-.353c0-.116-.138-.224-.292-.224h-8.779V49.271h7.037a.267.267,0,0,0,.3-.224v-.353c0-.116-.14-.223-.3-.223h-7.037V45.458H539.6a.264.264,0,0,0,.292-.228v-.351c0-.116-.138-.224-.292-.224Z" transform="translate(-529.776 -44.655)" fill="none"/>
    </clipPath>
    <clipPath id="clip-path-35">
      <path id="Контур_35" data-name="Контур 35" d="M546.14,44.655a.267.267,0,0,0-.3.224v6.946l-7.958-7.037a.521.521,0,0,0-.356-.133h-.466a.265.265,0,0,0-.29.224v7.985c0,.128.123.224.29.224h.466a.267.267,0,0,0,.3-.224V45.907l7.954,7.059a.6.6,0,0,0,.359.123h.46a.267.267,0,0,0,.3-.224V44.879c0-.116-.14-.224-.3-.224Z" transform="translate(-536.776 -44.655)" fill="none"/>
    </clipPath>
    <clipPath id="clip-path-36">
      <path id="Контур_36" data-name="Контур 36" d="M544.069,44.655a.267.267,0,0,0-.294.224v.351c0,.13.122.228.294.228h4.244v7.406c0,.128.123.224.29.224h.461c.165,0,.3-.1.3-.224V45.458H553.6a.265.265,0,0,0,.293-.228v-.351c0-.116-.14-.224-.293-.224Z" transform="translate(-543.776 -44.655)" fill="none"/>
    </clipPath>
    <clipPath id="clip-path-37">
      <path id="Контур_37" data-name="Контур 37" d="M551.069,44.655a.267.267,0,0,0-.293.224v7.985c0,.128.123.224.293.224H560.6c.165,0,.3-.1.3-.224v-.353c0-.116-.14-.224-.3-.224h-8.777V49.271h7.04a.267.267,0,0,0,.294-.224v-.353c0-.116-.14-.223-.294-.223h-7.04V45.458H560.6a.266.266,0,0,0,.3-.228v-.351c0-.116-.14-.224-.3-.224Z" transform="translate(-550.776 -44.655)" fill="none"/>
    </clipPath>
    <clipPath id="clip-path-38">
      <path id="Контур_38" data-name="Контур 38" d="M558.825,45.458h5.207c1.79,0,2.813.692,2.813,1.9s-1.024,1.9-2.813,1.9h-5.207Zm-.757-.8a.265.265,0,0,0-.292.224v7.985c0,.128.123.224.292.224h.461c.164,0,.3-.1.3-.224v-2.8h3.552l1.435,1.564a3.9,3.9,0,0,0,3.464,1.466h.3a.264.264,0,0,0,.292-.224v-.353c0-.116-.14-.224-.292-.224h-.3a2.7,2.7,0,0,1-2.284-.859l-1.287-1.37h.326c2.419,0,3.864-1.009,3.864-2.7,0-1.668-1.481-2.7-3.864-2.7Z" transform="translate(-557.776 -44.655)" fill="none"/>
    </clipPath>
  </defs>
  <g id="Сгруппировать_77" data-name="Сгруппировать 77" transform="translate(-458.814 -13.025)">
    <g id="Сгруппировать_2" data-name="Сгруппировать 2" transform="translate(532.12 17.461)">
      <g id="Сгруппировать_1" data-name="Сгруппировать 1" clip-path="url(#clip-path)">
        <rect id="Прямоугольник_2" data-name="Прямоугольник 2" width="30.36" height="28.674" transform="translate(-8.433 -8.433)" fill="#fff"/>
      </g>
    </g>
    <g id="Сгруппировать_4" data-name="Сгруппировать 4" transform="translate(533.341 23.103)">
      <g id="Сгруппировать_3" data-name="Сгруппировать 3" clip-path="url(#clip-path-2)">
        <rect id="Прямоугольник_3" data-name="Прямоугольник 3" width="26.987" height="26.987" transform="translate(-8.433 -8.433)" fill="#fff"/>
      </g>
    </g>
    <g id="Сгруппировать_6" data-name="Сгруппировать 6" transform="translate(532.12 29.268)">
      <g id="Сгруппировать_5" data-name="Сгруппировать 5" clip-path="url(#clip-path-3)">
        <rect id="Прямоугольник_4" data-name="Прямоугольник 4" width="26.987" height="25.3" transform="translate(-8.433 -8.433)" fill="#fff"/>
      </g>
    </g>
    <g id="Сгруппировать_8" data-name="Сгруппировать 8" transform="translate(568.384 17.461)">
      <g id="Сгруппировать_7" data-name="Сгруппировать 7" clip-path="url(#clip-path-4)">
        <rect id="Прямоугольник_5" data-name="Прямоугольник 5" width="30.36" height="28.674" transform="translate(-8.433 -8.433)" fill="#fff"/>
      </g>
    </g>
    <g id="Сгруппировать_10" data-name="Сгруппировать 10" transform="translate(570.536 23.103)">
      <g id="Сгруппировать_9" data-name="Сгруппировать 9" clip-path="url(#clip-path-5)">
        <rect id="Прямоугольник_6" data-name="Прямоугольник 6" width="26.987" height="26.987" transform="translate(-8.433 -8.433)" fill="#fff"/>
      </g>
    </g>
    <g id="Сгруппировать_12" data-name="Сгруппировать 12" transform="translate(571.757 29.268)">
      <g id="Сгруппировать_11" data-name="Сгруппировать 11" clip-path="url(#clip-path-6)">
        <rect id="Прямоугольник_7" data-name="Прямоугольник 7" width="26.987" height="25.3" transform="translate(-8.433 -8.433)" fill="#fff"/>
      </g>
    </g>
    <g id="Сгруппировать_14" data-name="Сгруппировать 14" transform="translate(553.204 27.581)">
      <g id="Сгруппировать_13" data-name="Сгруппировать 13" clip-path="url(#clip-path-7)">
        <rect id="Прямоугольник_8" data-name="Прямоугольник 8" width="33.734" height="55.66" transform="translate(-8.433 -8.433)" fill="#fff"/>
      </g>
    </g>
    <g id="Сгруппировать_16" data-name="Сгруппировать 16" transform="translate(551.517 57.941)">
      <g id="Сгруппировать_15" data-name="Сгруппировать 15" clip-path="url(#clip-path-8)">
        <rect id="Прямоугольник_9" data-name="Прямоугольник 9" width="26.987" height="38.794" transform="translate(-8.433 -8.433)" fill="#fff"/>
      </g>
    </g>
    <g id="Сгруппировать_18" data-name="Сгруппировать 18" transform="translate(544.316 27.775)">
      <g id="Сгруппировать_17" data-name="Сгруппировать 17" clip-path="url(#clip-path-9)">
        <rect id="Прямоугольник_10" data-name="Прямоугольник 10" width="29.458" height="43.422" transform="translate(-8.433 -8.433)" fill="#fff"/>
      </g>
    </g>
    <g id="Сгруппировать_20" data-name="Сгруппировать 20" transform="translate(554.061 68.706)">
      <g id="Сгруппировать_19" data-name="Сгруппировать 19" clip-path="url(#clip-path-10)">
        <rect id="Прямоугольник_11" data-name="Прямоугольник 11" width="25.263" height="34.776" transform="translate(-8.432 -8.433)" fill="#fff"/>
      </g>
    </g>
    <g id="Сгруппировать_22" data-name="Сгруппировать 22" transform="translate(542.278 13.025)">
      <g id="Сгруппировать_21" data-name="Сгруппировать 21" clip-path="url(#clip-path-11)">
        <rect id="Прямоугольник_12" data-name="Прямоугольник 12" width="46.087" height="27.211" transform="translate(-8.432 -8.433)" fill="#fff"/>
      </g>
    </g>
    <g id="Сгруппировать_24" data-name="Сгруппировать 24" transform="translate(458.814 44.713)">
      <g id="Сгруппировать_23" data-name="Сгруппировать 23" clip-path="url(#clip-path-12)">
        <rect id="Прямоугольник_13" data-name="Прямоугольник 13" width="34.987" height="32.961" transform="translate(-8.497 -8.433)" fill="#fff"/>
      </g>
    </g>
    <g id="Сгруппировать_26" data-name="Сгруппировать 26" transform="translate(478.99 46.134)">
      <g id="Сгруппировать_25" data-name="Сгруппировать 25" clip-path="url(#clip-path-13)">
        <rect id="Прямоугольник_14" data-name="Прямоугольник 14" width="32.047" height="32.047" transform="translate(-8.433 -8.433)" fill="#fff"/>
      </g>
    </g>
    <g id="Сгруппировать_28" data-name="Сгруппировать 28" transform="translate(495.855 44.448)">
      <g id="Сгруппировать_27" data-name="Сгруппировать 27" clip-path="url(#clip-path-14)">
        <rect id="Прямоугольник_15" data-name="Прямоугольник 15" width="33.734" height="33.734" transform="translate(-8.432 -8.433)" fill="#fff"/>
      </g>
    </g>
    <g id="Сгруппировать_30" data-name="Сгруппировать 30" transform="translate(516.097 46.134)">
      <g id="Сгруппировать_29" data-name="Сгруппировать 29" clip-path="url(#clip-path-15)">
        <rect id="Прямоугольник_16" data-name="Прямоугольник 16" width="32.047" height="32.047" transform="translate(-8.433 -8.433)" fill="#fff"/>
      </g>
    </g>
    <g id="Сгруппировать_32" data-name="Сгруппировать 32" transform="translate(532.964 46.134)">
      <g id="Сгруппировать_31" data-name="Сгруппировать 31" clip-path="url(#clip-path-16)">
        <rect id="Прямоугольник_17" data-name="Прямоугольник 17" width="28.674" height="32.047" transform="translate(-8.433 -8.433)" fill="#fff"/>
      </g>
    </g>
    <g id="Сгруппировать_34" data-name="Сгруппировать 34" transform="translate(573.442 46.134)">
      <g id="Сгруппировать_33" data-name="Сгруппировать 33" clip-path="url(#clip-path-17)">
        <rect id="Прямоугольник_18" data-name="Прямоугольник 18" width="28.674" height="32.047" transform="translate(-8.432 -8.433)" fill="#fff"/>
      </g>
    </g>
    <g id="Сгруппировать_36" data-name="Сгруппировать 36" transform="translate(583.564 46.134)">
      <g id="Сгруппировать_35" data-name="Сгруппировать 35" clip-path="url(#clip-path-18)">
        <rect id="Прямоугольник_19" data-name="Прямоугольник 19" width="33.734" height="32.047" transform="translate(-8.433 -8.433)" fill="#fff"/>
      </g>
    </g>
    <g id="Сгруппировать_38" data-name="Сгруппировать 38" transform="translate(605.491 46.134)">
      <g id="Сгруппировать_37" data-name="Сгруппировать 37" clip-path="url(#clip-path-19)">
        <rect id="Прямоугольник_20" data-name="Прямоугольник 20" width="32.047" height="32.047" transform="translate(-8.433 -8.433)" fill="#fff"/>
      </g>
    </g>
    <g id="Сгруппировать_40" data-name="Сгруппировать 40" transform="translate(622.358 44.448)">
      <g id="Сгруппировать_39" data-name="Сгруппировать 39" clip-path="url(#clip-path-20)">
        <rect id="Прямоугольник_21" data-name="Прямоугольник 21" width="33.734" height="33.734" transform="translate(-8.433 -8.433)" fill="#fff"/>
      </g>
    </g>
    <g id="Сгруппировать_42" data-name="Сгруппировать 42" transform="translate(642.598 46.134)">
      <g id="Сгруппировать_41" data-name="Сгруппировать 41" clip-path="url(#clip-path-21)">
        <rect id="Прямоугольник_22" data-name="Прямоугольник 22" width="32.047" height="32.047" transform="translate(-8.433 -8.433)" fill="#fff"/>
      </g>
    </g>
    <g id="Сгруппировать_44" data-name="Сгруппировать 44" transform="translate(659.464 46.134)">
      <g id="Сгруппировать_43" data-name="Сгруппировать 43" clip-path="url(#clip-path-22)">
        <rect id="Прямоугольник_23" data-name="Прямоугольник 23" width="33.734" height="32.047" transform="translate(-8.433 -8.433)" fill="#fff"/>
      </g>
    </g>
    <g id="Сгруппировать_46" data-name="Сгруппировать 46" transform="translate(679.703 46.134)">
      <g id="Сгруппировать_45" data-name="Сгруппировать 45" clip-path="url(#clip-path-23)">
        <rect id="Прямоугольник_24" data-name="Прямоугольник 24" width="25.3" height="32.047" transform="translate(-8.432 -8.433)" fill="#fff"/>
      </g>
    </g>
    <g id="Сгруппировать_48" data-name="Сгруппировать 48" transform="translate(689.825 46.134)">
      <g id="Сгруппировать_47" data-name="Сгруппировать 47" clip-path="url(#clip-path-24)">
        <rect id="Прямоугольник_25" data-name="Прямоугольник 25" width="32.047" height="32.047" transform="translate(-8.433 -8.433)" fill="#fff"/>
      </g>
    </g>
    <g id="Сгруппировать_50" data-name="Сгруппировать 50" transform="translate(705.005 46.134)">
      <g id="Сгруппировать_49" data-name="Сгруппировать 49" clip-path="url(#clip-path-25)">
        <rect id="Прямоугольник_26" data-name="Прямоугольник 26" width="32.047" height="32.047" transform="translate(-8.433 -8.433)" fill="#fff"/>
      </g>
    </g>
    <g id="Сгруппировать_52" data-name="Сгруппировать 52" transform="translate(478.99 66.375)">
      <g id="Сгруппировать_51" data-name="Сгруппировать 51" clip-path="url(#clip-path-26)">
        <rect id="Прямоугольник_27" data-name="Прямоугольник 27" width="26.987" height="25.3" transform="translate(-8.433 -8.433)" fill="#fff"/>
      </g>
    </g>
    <g id="Сгруппировать_54" data-name="Сгруппировать 54" transform="translate(490.797 66.375)">
      <g id="Сгруппировать_53" data-name="Сгруппировать 53" clip-path="url(#clip-path-27)">
        <rect id="Прямоугольник_28" data-name="Прямоугольник 28" width="26.987" height="25.3" transform="translate(-8.433 -8.433)" fill="#fff"/>
      </g>
    </g>
    <g id="Сгруппировать_56" data-name="Сгруппировать 56" transform="translate(502.604 66.375)">
      <g id="Сгруппировать_55" data-name="Сгруппировать 55" clip-path="url(#clip-path-28)">
        <rect id="Прямоугольник_29" data-name="Прямоугольник 29" width="26.987" height="25.3" transform="translate(-8.433 -8.433)" fill="#fff"/>
      </g>
    </g>
    <g id="Сгруппировать_58" data-name="Сгруппировать 58" transform="translate(513.469 66.375)">
      <g id="Сгруппировать_57" data-name="Сгруппировать 57" clip-path="url(#clip-path-29)">
        <rect id="Прямоугольник_30" data-name="Прямоугольник 30" width="20.24" height="25.3" transform="translate(-8.432 -8.433)" fill="#fff"/>
      </g>
    </g>
    <g id="Сгруппировать_60" data-name="Сгруппировать 60" transform="translate(517.3 66.375)">
      <g id="Сгруппировать_59" data-name="Сгруппировать 59" clip-path="url(#clip-path-30)">
        <rect id="Прямоугольник_31" data-name="Прямоугольник 31" width="26.987" height="25.3" transform="translate(-8.433 -8.433)" fill="#fff"/>
      </g>
    </g>
    <g id="Сгруппировать_62" data-name="Сгруппировать 62" transform="translate(527.904 66.375)">
      <g id="Сгруппировать_61" data-name="Сгруппировать 61" clip-path="url(#clip-path-31)">
        <rect id="Прямоугольник_32" data-name="Прямоугольник 32" width="26.987" height="25.3" transform="translate(-8.433 -8.433)" fill="#fff"/>
      </g>
    </g>
    <g id="Сгруппировать_64" data-name="Сгруппировать 64" transform="translate(539.71 66.375)">
      <g id="Сгруппировать_63" data-name="Сгруппировать 63" clip-path="url(#clip-path-32)">
        <rect id="Прямоугольник_33" data-name="Прямоугольник 33" width="25.3" height="25.3" transform="translate(-8.433 -8.433)" fill="#fff"/>
      </g>
    </g>
    <g id="Сгруппировать_66" data-name="Сгруппировать 66" transform="translate(566.697 66.375)">
      <g id="Сгруппировать_65" data-name="Сгруппировать 65" clip-path="url(#clip-path-33)">
        <rect id="Прямоугольник_34" data-name="Прямоугольник 34" width="26.987" height="25.3" transform="translate(-8.433 -8.433)" fill="#fff"/>
      </g>
    </g>
    <g id="Сгруппировать_68" data-name="Сгруппировать 68" transform="translate(578.504 66.375)">
      <g id="Сгруппировать_67" data-name="Сгруппировать 67" clip-path="url(#clip-path-34)">
        <rect id="Прямоугольник_35" data-name="Прямоугольник 35" width="26.987" height="25.3" transform="translate(-8.433 -8.433)" fill="#fff"/>
      </g>
    </g>
    <g id="Сгруппировать_70" data-name="Сгруппировать 70" transform="translate(590.311 66.375)">
      <g id="Сгруппировать_69" data-name="Сгруппировать 69" clip-path="url(#clip-path-35)">
        <rect id="Прямоугольник_36" data-name="Прямоугольник 36" width="26.987" height="25.3" transform="translate(-8.433 -8.433)" fill="#fff"/>
      </g>
    </g>
    <g id="Сгруппировать_72" data-name="Сгруппировать 72" transform="translate(602.117 66.375)">
      <g id="Сгруппировать_71" data-name="Сгруппировать 71" clip-path="url(#clip-path-36)">
        <rect id="Прямоугольник_37" data-name="Прямоугольник 37" width="26.987" height="25.3" transform="translate(-8.433 -8.433)" fill="#fff"/>
      </g>
    </g>
    <g id="Сгруппировать_74" data-name="Сгруппировать 74" transform="translate(613.924 66.375)">
      <g id="Сгруппировать_73" data-name="Сгруппировать 73" clip-path="url(#clip-path-37)">
        <rect id="Прямоугольник_38" data-name="Прямоугольник 38" width="26.987" height="25.3" transform="translate(-8.433 -8.433)" fill="#fff"/>
      </g>
    </g>
    <g id="Сгруппировать_76" data-name="Сгруппировать 76" transform="translate(625.731 66.375)">
      <g id="Сгруппировать_75" data-name="Сгруппировать 75" clip-path="url(#clip-path-38)">
        <rect id="Прямоугольник_39" data-name="Прямоугольник 39" width="26.987" height="25.3" transform="translate(-8.433 -8.433)" fill="#fff"/>
      </g>
    </g>
  </g>
</svg>
